# xmcd
#
# Track frame offsets:
# 150
# 16810
# 33578
# 53695
# 72528
# 94465
# 110680
# 126160
# 143243
# 165078
#
# Disc length: 2499 seconds
#
#
# Revision: 2
# Processed by: cddbd v1.4PL0 Copyright (c) Steve Scherf et al.
# Submitted via: FreeRIP 2.00 
#
DISCID=8709c10a
DTITLE=Joan_Armatrading - To_The_Limit
DYEAR=1978
DGENRE=Rock
TTITLE0=Barefoot_And_Pregnant
TTITLE1=Your_Letter
TTITLE2=Am_I_Blue_For_You
TTITLE3=You_Rope_You_Tie_Me
TTITLE4=Baby_I
TTITLE5=Bottom_To_The_Top
TTITLE6=Taking_My_Baby_Up_Town
TTITLE7=What_Do_You_Want
TTITLE8=Wishing
TTITLE9=Let_It_Last
EXTD=
EXTT0=
EXTT1=
EXTT2=
EXTT3=
EXTT4=
EXTT5=
EXTT6=
EXTT7=
EXTT8=
EXTT9=
PLAYORDER=
